<?xml version="1.0" standalone="no"?>
<!DOCTYPE svg PUBLIC "-//W3C//DTD SVG 20010904//EN"
 "http://www.w3.org/TR/2001/REC-SVG-20010904/DTD/svg10.dtd">
<svg version="1.0" xmlns="http://www.w3.org/2000/svg"
 width="500.000000pt" height="500.000000pt" viewBox="0 0 500.000000 500.000000"
 preserveAspectRatio="xMidYMid meet">
<metadata>
Created by potrace 1.11, written by Peter Selinger 2001-2013
</metadata>
<g transform="translate(0.000000,500.000000) scale(0.100000,-0.100000)"
fill="#000000" stroke="none">
<path d="M2488 4435 c-2 -2 -43 -5 -92 -7 -48 -2 -89 -5 -91 -8 -2 -3 -39 -7
-82 -8 -43 -2 -80 -6 -83 -10 -5 -7 -15 -8 -83 -11 -16 0 -26 -5 -23 -9 2 -4
-7 -7 -21 -6 -13 0 -48 -6 -76 -14 -29 -7 -61 -15 -72 -18 -43 -8 -50 -10 -63
-18 -7 -4 -16 -5 -19 -2 -3 3 -11 1 -18 -4 -6 -5 -20 -11 -31 -13 -10 -2 -32
-10 -49 -17 -16 -7 -36 -14 -43 -16 -8 -1 -21 -6 -30 -10 -9 -4 -19 -8 -22 -9
-3 -2 -15 -6 -27 -10 -13 -4 -23 -11 -23 -16 0 -5 -9 -9 -20 -9 -11 0 -20 -4
-20 -8 0 -5 -6 -9 -13 -9 -16 0 -157 -90 -175 -112 -10 -12 -12 -12 -7 -1 4 8
-26 -19 -66 -62 -86 -89 -99 -104 -99 -116 0 -5 -7 -15 -15 -22 -8 -7 -12 -16
-9 -21 3 -5 0 -9 -5 -9 -6 0 -11 -9 -11 -21 0 -11 -4 -18 -8 -15 -5 3 -8 -5
-7 -17 1 -12 -2 -24 -6 -27 -5 -3 -9 -21 -11 -39 -1 -18 -5 -34 -8 -36 -6 -3
-3 -154 3 -197 3 -16 0 -28 -7 -28 -7 0 -8 -3 -1 -8 6 -4 12 -25 14 -47 6 -74
7 -85 14 -91 4 -4 2 -13 -4 -21 -9 -9 -8 -13 0 -13 13 0 10 -22 -4 -32 -6 -5
-6 -8 1 -8 11 0 12 -28 1 -46 -3 -6 -3 -14 1 -18 4 -4 7 -32 8 -61 1 -49 -2
-56 -37 -90 -22 -21 -39 -41 -39 -46 0 -4 -6 -14 -14 -22 -8 -8 -21 -30 -30
-51 -8 -20 -20 -36 -26 -36 -6 0 -9 -4 -6 -8 3 -5 -1 -20 -9 -35 -7 -14 -11
-28 -8 -31 3 -3 0 -13 -8 -22 -8 -10 -13 -19 -11 -21 1 -1 2 -6 1 -10 -1 -5 0
-19 1 -32 1 -15 -2 -21 -9 -16 -14 8 -10 -17 4 -28 6 -6 6 -10 -2 -14 -7 -2
-13 -9 -13 -14 0 -6 4 -7 10 -4 5 3 8 0 5 -7 -11 -28 -13 -84 -3 -95 5 -7 8
-18 6 -25 -3 -7 1 -19 9 -26 7 -8 11 -18 7 -23 -3 -6 0 -16 6 -24 13 -16 18
-334 6 -354 -4 -6 -3 -11 2 -11 4 0 7 -21 5 -46 -2 -25 1 -51 6 -58 12 -15 10
-107 -3 -129 -8 -13 -8 -20 0 -25 7 -4 12 -43 13 -97 1 -49 6 -94 10 -100 5
-5 8 -23 7 -40 -1 -16 4 -45 11 -63 9 -25 9 -32 0 -32 -8 0 -8 -3 -2 -8 6 -4
10 -20 9 -37 0 -16 4 -36 9 -42 5 -7 7 -20 3 -28 -3 -8 0 -15 6 -15 9 0 9 -3
0 -12 -7 -7 -8 -17 -1 -30 7 -13 6 -18 -2 -18 -8 0 -9 -4 0 -13 6 -8 8 -17 4
-20 -3 -4 -1 -7 6 -7 7 0 9 -4 6 -10 -3 -5 -1 -10 4 -10 6 0 11 -9 11 -20 0
-11 5 -20 10 -20 6 0 10 -9 10 -20 0 -11 5 -20 10 -20 6 0 10 -9 10 -20 0 -11
5 -20 10 -20 6 0 10 -5 10 -11 0 -7 10 -20 22 -30 13 -12 16 -19 8 -19 -9 0
-6 -7 8 -20 12 -11 26 -20 32 -20 5 0 10 -5 10 -12 0 -13 79 -88 92 -88 5 0 7
-4 3 -9 -7 -12 29 -33 40 -23 5 4 5 -1 2 -10 -3 -10 -3 -17 1 -17 20 3 33 -2
27 -11 -5 -9 16 -15 38 -11 5 1 6 -3 2 -9 -3 -5 1 -10 10 -10 9 0 14 -4 10 -9
-3 -5 5 -11 17 -13 13 -2 22 -9 20 -16 -1 -8 2 -11 8 -7 5 3 10 1 10 -5 0 -6
4 -9 9 -5 6 3 19 -5 30 -17 15 -15 21 -18 21 -7 1 10 4 8 11 -5 9 -15 13 -16
20 -5 7 11 9 11 9 -2 0 -20 27 -33 34 -16 2 7 5 4 5 -6 1 -10 6 -15 11 -12 6
3 10 1 10 -4 0 -6 9 -11 20 -11 11 0 20 -5 20 -11 0 -5 5 -7 10 -4 6 3 10 1
10 -5 0 -6 4 -9 9 -5 5 3 12 1 16 -5 4 -6 11 -8 16 -5 5 4 9 0 9 -7 0 -10 3
-9 10 2 8 12 10 12 15 -2 4 -9 14 -15 23 -13 9 1 19 -1 22 -6 3 -4 18 -10 34
-13 15 -3 35 -11 44 -18 13 -11 14 -11 7 2 -7 12 -6 13 6 4 25 -18 71 -35 64
-23 -4 6 7 4 23 -5 17 -9 38 -13 46 -10 9 3 16 2 16 -4 0 -5 19 -12 43 -15 57
-7 119 -17 135 -22 7 -3 11 -1 8 3 -2 4 4 8 14 8 10 0 16 -4 14 -8 -6 -9 -6
-9 58 -13 25 -2 51 -6 57 -10 6 -3 11 -1 11 5 0 6 12 5 35 -4 20 -9 37 -11 40
-5 4 5 13 6 24 0 9 -5 22 -6 29 -2 6 4 37 4 67 1 31 -3 55 -2 55 3 0 5 6 5 13
-1 7 -6 18 -7 26 -3 8 5 27 5 42 1 16 -5 31 -5 34 0 3 5 12 7 19 4 8 -3 17 0
21 6 6 9 10 9 16 -1 7 -12 9 -12 9 0 0 11 3 11 15 1 8 -7 15 -8 15 -3 0 5 15
8 33 8 17 0 38 4 44 8 7 5 24 7 38 5 14 -3 25 -2 25 1 0 4 14 6 30 5 17 -1 30
2 30 8 0 5 10 6 21 3 15 -5 19 -4 14 5 -6 9 -3 9 13 1 15 -8 23 -7 32 4 13 16
31 16 42 0 5 -6 8 -5 8 3 0 6 6 12 14 12 8 0 17 6 19 13 4 9 6 8 6 -2 1 -10 5
-11 14 -3 6 6 28 13 47 15 19 3 36 6 38 7 1 2 7 3 12 4 6 0 15 8 20 16 5 8 10
10 10 4 0 -6 7 -11 15 -11 8 0 12 4 9 9 -5 7 18 12 39 9 4 0 7 4 7 10 0 5 5 7
10 4 6 -3 10 -2 10 4 0 5 9 8 20 6 13 -3 18 0 14 7 -5 7 0 9 14 6 13 -4 20 -2
19 5 -1 6 10 11 25 11 15 -1 25 2 23 6 -7 11 24 22 37 13 6 -3 8 -1 5 4 -6 10
37 29 55 25 4 -1 5 5 2 13 -4 10 3 16 23 21 15 3 34 13 41 22 10 13 12 13 12
1 1 -10 3 -9 11 4 6 9 15 15 20 11 5 -3 8 0 7 7 -2 7 3 14 10 15 6 1 17 2 22
3 6 0 10 8 10 16 0 8 3 14 8 14 19 -3 43 2 39 9 -5 9 30 42 37 34 3 -3 6 2 6
12 0 9 5 14 10 11 6 -3 10 1 10 10 0 9 6 15 13 12 15 -5 49 32 40 46 -4 6 0 8
11 4 9 -4 15 -3 12 2 -7 11 27 51 43 51 7 0 9 5 6 10 -3 6 -1 10 4 10 6 0 11
7 11 15 0 9 7 18 15 21 8 4 12 10 9 15 -3 5 0 9 7 9 7 0 9 3 6 6 -4 4 3 15 14
25 12 10 18 23 14 29 -3 5 0 12 7 15 8 3 15 17 16 32 1 15 5 29 10 32 8 6 11
23 19 88 3 24 8 41 12 39 3 -2 7 16 8 40 1 25 6 50 10 57 4 7 8 64 9 127 0 63
4 122 7 130 10 24 14 200 5 200 -5 0 -6 6 -1 13 9 15 10 30 2 85 -3 23 -2 42
3 42 5 0 6 9 3 20 -3 11 -2 20 3 20 6 0 10 15 10 34 0 19 3 39 7 45 3 6 1 11
-5 11 -7 0 -5 8 3 23 10 15 14 51 12 117 0 52 2 107 6 123 5 18 4 27 -4 27 -8
0 -8 3 1 9 7 4 14 25 15 47 1 21 6 45 11 53 6 10 5 12 -2 7 -16 -10 -15 26 1
43 8 9 8 12 0 7 -8 -4 -11 4 -11 26 1 18 -4 46 -11 61 -6 16 -9 32 -6 37 3 5
1 10 -5 12 -6 2 -12 12 -14 23 -8 37 -36 95 -47 95 -5 0 -8 4 -5 8 3 5 -3 18
-12 28 -10 10 -19 23 -19 27 -1 5 -20 29 -42 55 -23 25 -41 48 -42 51 -4 34
-2 71 4 71 4 0 3 9 -3 20 -6 11 -7 20 -2 20 10 0 9 36 -1 46 -4 4 1 13 11 21
9 8 12 12 6 9 -13 -6 -16 41 -4 49 4 3 6 21 4 40 -2 24 1 33 8 29 7 -5 8 -2 3
6 -10 16 -13 60 -5 60 8 0 4 261 -4 293 -5 15 -12 27 -17 27 -5 0 -6 6 -3 14
3 8 1 17 -5 21 -6 3 -11 15 -11 26 0 10 -4 19 -10 19 -5 0 -10 7 -10 15 0 8
-5 15 -11 15 -6 0 -9 5 -7 12 4 11 0 17 -89 109 -53 56 -102 96 -111 91 -3 -2
-8 0 -11 5 -10 16 -101 74 -101 66 0 -4 -5 0 -11 10 -6 9 -14 15 -19 12 -5 -3
-11 -1 -15 5 -3 5 -14 10 -24 10 -10 0 -30 9 -44 20 -15 12 -29 21 -32 21 -6
-1 -35 9 -60 19 -27 12 -70 24 -70 20 0 -2 -11 3 -25 10 -14 8 -32 15 -40 15
-8 0 -20 4 -27 8 -6 4 -23 8 -37 9 -14 1 -26 5 -26 9 0 6 -9 7 -55 10 -14 1
-25 5 -25 10 0 4 -16 7 -36 5 -19 -1 -37 1 -40 6 -3 5 -10 6 -15 3 -5 -4 -9
-2 -9 3 0 5 -15 8 -32 7 -18 -1 -38 2 -45 7 -7 5 -25 9 -40 8 -15 -1 -30 -1
-33 0 -16 6 -116 12 -263 15 -92 2 -171 6 -176 9 -4 3 -10 4 -13 1z"/>
</g>
</svg>
